# xmcd
#
# Track frame offsets: 
#        150
#        28654
#        50328
#        73984
#        90419
#        113587
#        135118
#        154430
#        176713
#        199003
#        222558
#
# Disc length: 3317 seconds
#
# Revision: 0
# Processed by: cddbd v1.5.2PL0 Copyright (c) Steve Scherf et al.
# Submitted via: ExactAudioCopy v0.99pb4
#
DISCID=990cf30b
DTITLE=Frankie L. Baskin - This Is Who I Am...
DYEAR=1900
DGENRE=Blues
TTITLE0=This Is Who I Am
TTITLE1=Ma'Leake
TTITLE2=Song For My Daughter (Latrice)
TTITLE3=One Bad Habit
TTITLE4=Pieces Of A Dream
TTITLE5=Raw Soul
TTITLE6=Sugarfoot
TTITLE7=Master Piece
TTITLE8=One Night Stand
TTITLE9=Nora
TTITLE10=Stay
EXTD=
EXTT0=
EXTT1=
EXTT2=
EXTT3=
EXTT4=
EXTT5=
EXTT6=
EXTT7=
EXTT8=
EXTT9=
EXTT10=
PLAYORDER=
